<?xml version="1.0" encoding="UTF-8" standalone="no"?>
<!-- Generator: Adobe Illustrator 19.0.0, SVG Export Plug-In . SVG Version: 6.00 Build 0)  -->

<svg
   xmlns:dc="http://purl.org/dc/elements/1.1/"
   xmlns:cc="http://creativecommons.org/ns#"
   xmlns:rdf="http://www.w3.org/1999/02/22-rdf-syntax-ns#"
   xmlns:svg="http://www.w3.org/2000/svg"
   xmlns="http://www.w3.org/2000/svg"
   xmlns:sodipodi="http://sodipodi.sourceforge.net/DTD/sodipodi-0.dtd"
   xmlns:inkscape="http://www.inkscape.org/namespaces/inkscape"
   version="1.1"
   id="Layer_1"
   x="0px"
   y="0px"
   viewBox="0 0 300 300"
   style="enable-background:new 0 0 300 300;"
   xml:space="preserve"
   width="512px"
   height="512px"
   inkscape:version="0.91 r13725"
   sodipodi:docname="gamepad.svg"><metadata
     id="metadata6361"><rdf:RDF><cc:Work
         rdf:about=""><dc:format>image/svg+xml</dc:format><dc:type
           rdf:resource="http://purl.org/dc/dcmitype/StillImage" /></cc:Work></rdf:RDF></metadata><defs
     id="defs6359" /><sodipodi:namedview
     pagecolor="#ffffff"
     bordercolor="#666666"
     borderopacity="1"
     objecttolerance="10"
     gridtolerance="10"
     guidetolerance="10"
     inkscape:pageopacity="0"
     inkscape:pageshadow="2"
     inkscape:window-width="1863"
     inkscape:window-height="1056"
     id="namedview6357"
     showgrid="false"
     inkscape:zoom="1.6907043"
     inkscape:cx="256"
     inkscape:cy="256"
     inkscape:window-x="57"
     inkscape:window-y="24"
     inkscape:window-maximized="1"
     inkscape:current-layer="Layer_1" /><ellipse
     style="fill:#ffffff;fill-opacity:1;stroke:none;stroke-width:15.59799957;stroke-miterlimit:4;stroke-dasharray:none;stroke-opacity:1"
     id="path6903"
     cx="144.51724"
     cy="156.17587"
     rx="125.10966"
     ry="106.74175" /><g
     id="g6309"><g
       id="g6311"><g
         id="g6313"><circle
           cx="192.147"
           cy="134.719"
           r="8.808"
           fill="#FF9520"
           id="circle6315" /><circle
           cx="206.357"
           cy="120.516"
           r="8.808"
           fill="#FF9520"
           id="circle6317" /><polygon
           points="94.61,117.808 81.642,117.808 81.642,130.128 69.323,130.128 69.323,143.096 81.642,143.096 81.642,155.415      94.61,155.415 94.61,143.096 106.93,143.096 106.93,130.128 94.61,130.128    "
           fill="#FF9520"
           id="polygon6319" /><path
           d="M149.996,0C67.157,0,0.001,67.161,0.001,149.997S67.157,300,149.996,300s150.003-67.163,150.003-150.003     S232.835,0,149.996,0z M227.064,216.092h-13.279l-28.61-45.637h-31.46h-7.431h-31.46l-28.612,45.637H72.933     c-10.468,0-18.957-8.486-18.957-18.957l4.212-66.349c0-0.213,0.026-0.379,0.031-0.578c-0.003-0.213-0.031-0.418-0.031-0.633     c0-22.403,18.163-40.566,40.566-40.566c9.288,0,15.717,3.156,22.554,8.411c8.751-2.539,13.105-4.728,24.974-5.382h7.431     c11.868,0.654,16.223,2.843,24.974,5.382c6.839-5.255,13.266-8.411,22.554-8.411c22.403,0,40.566,18.163,40.566,40.566     c0,0.215-0.029,0.42-0.031,0.633c0.005,0.197,0.031,0.366,0.031,0.578l4.212,66.349     C246.018,207.606,237.535,216.092,227.064,216.092z"
           fill="#FF9520"
           id="path6321" /><circle
           cx="220.565"
           cy="134.721"
           r="8.808"
           fill="#FF9520"
           id="circle6323" /><circle
           cx="206.355"
           cy="148.931"
           r="8.808"
           fill="#FF9520"
           id="circle6325" /></g></g></g><g
     id="g6327" /><g
     id="g6329" /><g
     id="g6331" /><g
     id="g6333" /><g
     id="g6335" /><g
     id="g6337" /><g
     id="g6339" /><g
     id="g6341" /><g
     id="g6343" /><g
     id="g6345" /><g
     id="g6347" /><g
     id="g6349" /><g
     id="g6351" /><g
     id="g6353" /><g
     id="g6355" /></svg>