<?xml version="1.0" encoding="utf-8"?>
<!-- Generator: Adobe Illustrator 20.1.0, SVG Export Plug-In . SVG Version: 6.00 Build 0)  -->
<svg version="1.1" id="Layer_1" xmlns="http://www.w3.org/2000/svg" xmlns:xlink="http://www.w3.org/1999/xlink" x="0px" y="0px"
	 viewBox="0 0 105.8 110.9" style="enable-background:new 0 0 105.8 110.9;" xml:space="preserve">
<g>
	<g>
		<defs>
			<polygon id="SVGID_1_" points="52.9,23.7 19.1,2.5 2.2,13.1 2.2,34.3 36,55.4 36,97.8 52.9,108.3 69.8,97.8 69.8,55.4 
				103.7,34.3 103.7,13.1 86.8,2.5 			"/>
		</defs>
		<clipPath id="SVGID_2_">
			<use xlink:href="#SVGID_1_"  style="overflow:visible;"/>
		</clipPath>
		<path style="clip-path:url(#SVGID_2_);fill:#FFFFFF;" d="M53.2,108.9l-0.3-0.2l-0.3,0.2v-0.4L36,98.1l-0.3,0.2v-0.4l-0.3-0.2
			l0.3-0.2V76.8l-0.3-0.2l0.3-0.2V55.6L19.1,45.2l-0.3,0.2V45L2.2,34.6l-0.3,0.2v-0.4l-0.3-0.2l0.3-0.2V13.3l-0.3-0.2L1.9,13v-0.4
			l0.3,0.2L18.8,2.4V2l0.3,0.2L19.4,2v0.4L36,12.8l0.3-0.2V13l16.6,10.4l0.3-0.2v0L69.5,13v-0.4l0.3,0.2L86.5,2.4V2l0.3,0.2L87,2
			v0.4l16.6,10.4l0.3-0.2V13l0.3,0.2l-0.3,0.2v20.8l0.3,0.2l-0.3,0.2v0.4l-0.3-0.2L87,45v0.4l-0.3-0.2L70.1,55.6v20.8l0.3,0.2
			l-0.3,0.2v20.8l0.3,0.2l-0.3,0.2v0.4l-0.3-0.2l-16.6,10.4V108.9z M53.2,87.7v20.1l16.1-10.1L53.2,87.7z M36.5,97.8l16.1,10.1V87.7
			L36.5,97.8z M36.3,77.1v20.1l16.1-10.1L36.3,77.1z M53.5,87.2l16.1,10.1V77.1L53.5,87.2z M53.2,86.7l16.1-10.1L53.2,66.5V86.7z
			 M36.5,76.6l16.1,10.1V66.5L36.5,76.6z M53.5,66l16.1,10.1V56L53.5,66z M36.3,56v20.1L52.4,66L36.3,56z M53.2,45.4v20.1l16.1-10.1
			L53.2,45.4z M36.5,55.4l16.1,10.1V45.4L36.5,55.4z M53.5,44.9l16.1,10.1V34.8L53.5,44.9z M36.3,34.8v20.1l16.1-10.1L36.3,34.8z
			 M19.6,44.9l16.1,10.1V34.8L19.6,44.9z M70.1,54.9l16.1-10.1L70.1,34.8V54.9z M53.2,44.3l16.1-10.1L53.2,24.2V44.3z M2.7,34.3
			l16.1,10.1V24.2L2.7,34.3z M70.4,34.3l16.1,10.1V24.2L70.4,34.3z M36.5,34.3l16.1,10.1V24.2L36.5,34.3z M19.4,24.2v20.1l16.1-10.1
			L19.4,24.2z M87,24.2v20.1l16.1-10.1L87,24.2z M53.5,23.7l16.1,10.1V13.6L53.5,23.7z M2.4,13.6v20.1l16.1-10.1L2.4,13.6z
			 M70.1,13.6v20.1l16.1-10.1L70.1,13.6z M19.6,23.7l16.1,10.1V13.6L19.6,23.7z M87.3,23.7l16.1,10.1V13.6L87.3,23.7z M36.3,33.8
			l16.1-10.1L36.3,13.6V33.8z M19.4,3.1v20.1l16.1-10.1L19.4,3.1z M2.7,13.1l16.1,10.1V3.1L2.7,13.1z M87,3.1v20.1l16.1-10.1L87,3.1
			z M70.4,13.1l16.1,10.1V3.1L70.4,13.1z"/>
	</g>
	<path style="fill:#FFFFFF;" d="M52.9,110.9L33.8,98.9V56.6L0,35.5V11.9L19.1,0l33.8,21.2L86.8,0l19.1,11.9v23.5L72,56.6v42.3
		L52.9,110.9z M38.2,96.6l14.8,9.2l14.8-9.2V54.2l33.8-21.2V14.3L86.8,5.1L52.9,26.2L19.1,5.1L4.3,14.3v18.8l33.8,21.2V96.6z"/>
</g>
</svg>
