<?xml version="1.0" encoding="UTF-8" standalone="no"?>
<!-- Generator: Adobe Illustrator 19.0.0, SVG Export Plug-In . SVG Version: 6.00 Build 0)  -->

<svg
   xmlns:dc="http://purl.org/dc/elements/1.1/"
   xmlns:cc="http://creativecommons.org/ns#"
   xmlns:rdf="http://www.w3.org/1999/02/22-rdf-syntax-ns#"
   xmlns:svg="http://www.w3.org/2000/svg"
   xmlns="http://www.w3.org/2000/svg"
   xmlns:sodipodi="http://sodipodi.sourceforge.net/DTD/sodipodi-0.dtd"
   xmlns:inkscape="http://www.inkscape.org/namespaces/inkscape"
   version="1.1"
   id="Layer_1"
   x="0px"
   y="0px"
   viewBox="0 0 512 512"
   style="enable-background:new 0 0 512 512;"
   xml:space="preserve"
   inkscape:version="0.91 r13725"
   sodipodi:docname="003-triangle-button.svg"><metadata
     id="metadata6290"><rdf:RDF><cc:Work
         rdf:about=""><dc:format>image/svg+xml</dc:format><dc:type
           rdf:resource="http://purl.org/dc/dcmitype/StillImage" /></cc:Work></rdf:RDF></metadata><defs
     id="defs6288" /><sodipodi:namedview
     pagecolor="#ffffff"
     bordercolor="#666666"
     borderopacity="1"
     objecttolerance="10"
     gridtolerance="10"
     guidetolerance="10"
     inkscape:pageopacity="0"
     inkscape:pageshadow="2"
     inkscape:window-width="1863"
     inkscape:window-height="1056"
     id="namedview6286"
     showgrid="false"
     inkscape:zoom="1.6907043"
     inkscape:cx="256"
     inkscape:cy="256"
     inkscape:window-x="57"
     inkscape:window-y="24"
     inkscape:window-maximized="1"
     inkscape:current-layer="Layer_1" /><circle
     style="fill:#054a45;fill-opacity:1"
     cx="256"
     cy="256"
     r="256"
     id="circle6250" /><path
     style="fill:#053737;fill-opacity:1"
     d="M128.1,335.9l172.3,172.3c93.4-16.3,169.4-83.3,198.7-171.6L269.9,107.4L128.1,335.9z"
     id="path6252" /><path
     style="fill:#FFFFFF;"
     d="M370.9,340.7H141.1c-7.2,0-13.8-3.8-17.3-10s-3.6-13.8,0-20l114.9-198.9c3.6-6.2,10.2-10,17.3-10  c7.1,0,13.8,3.8,17.3,10l114.9,198.9c3.6,6.2,3.6,13.8,0,20S378,340.7,370.9,340.7z M175.8,300.7h160.4l-80.2-139L175.8,300.7z"
     id="path6254" /><g
     id="g6256" /><g
     id="g6258" /><g
     id="g6260" /><g
     id="g6262" /><g
     id="g6264" /><g
     id="g6266" /><g
     id="g6268" /><g
     id="g6270" /><g
     id="g6272" /><g
     id="g6274" /><g
     id="g6276" /><g
     id="g6278" /><g
     id="g6280" /><g
     id="g6282" /><g
     id="g6284" /></svg>