<?xml version="1.0" encoding="UTF-8" standalone="no"?>
<!-- Generator: Adobe Illustrator 19.0.0, SVG Export Plug-In . SVG Version: 6.00 Build 0)  -->

<svg
   xmlns:dc="http://purl.org/dc/elements/1.1/"
   xmlns:cc="http://creativecommons.org/ns#"
   xmlns:rdf="http://www.w3.org/1999/02/22-rdf-syntax-ns#"
   xmlns:svg="http://www.w3.org/2000/svg"
   xmlns="http://www.w3.org/2000/svg"
   xmlns:sodipodi="http://sodipodi.sourceforge.net/DTD/sodipodi-0.dtd"
   xmlns:inkscape="http://www.inkscape.org/namespaces/inkscape"
   version="1.1"
   id="Layer_1"
   x="0px"
   y="0px"
   viewBox="0 0 512 512"
   style="enable-background:new 0 0 512 512;"
   xml:space="preserve"
   inkscape:version="0.91 r13725"
   sodipodi:docname="game-controller.svg"><metadata
     id="metadata7008"><rdf:RDF><cc:Work
         rdf:about=""><dc:format>image/svg+xml</dc:format><dc:type
           rdf:resource="http://purl.org/dc/dcmitype/StillImage" /><dc:title></dc:title></cc:Work></rdf:RDF></metadata><defs
     id="defs7006" /><sodipodi:namedview
     pagecolor="#ffffff"
     bordercolor="#666666"
     borderopacity="1"
     objecttolerance="10"
     gridtolerance="10"
     guidetolerance="10"
     inkscape:pageopacity="0"
     inkscape:pageshadow="2"
     inkscape:window-width="1863"
     inkscape:window-height="1056"
     id="namedview7004"
     showgrid="false"
     inkscape:zoom="1.6907043"
     inkscape:cx="256"
     inkscape:cy="256"
     inkscape:window-x="57"
     inkscape:window-y="24"
     inkscape:window-maximized="1"
     inkscape:current-layer="Layer_1" /><circle
     style="fill:#ff9520;fill-opacity:1"
     cx="256"
     cy="256"
     r="256"
     id="circle6968" /><path
     style="fill:#ff7520;fill-opacity:1"
     d="M 509.989,288.207 354,162 135.91563,159.24645 143,367.8 285.576,510.289 C 402.444,496.842 495.364,404.712 509.989,288.207 Z"
     id="path6970"
     inkscape:connector-curvature="0"
     sodipodi:nodetypes="cccccc" /><g
     id="g6974" /><g
     id="g6976" /><g
     id="g6978" /><g
     id="g6980" /><g
     id="g6982" /><g
     id="g6984" /><g
     id="g6986" /><g
     id="g6988" /><g
     id="g6990" /><g
     id="g6992" /><g
     id="g6994" /><g
     id="g6996" /><g
     id="g6998" /><g
     id="g7000" /><g
     id="g7002" /><g
     transform="matrix(11.256844,0,0,11.256844,76.85628,76.852955)"
     id="g4259"
     style="fill:#ffffff;fill-opacity:1"><path
       style="fill:#ffffff;fill-opacity:1"
       inkscape:connector-curvature="0"
       d="m 22.222,4.77 c -1.367,0 -11.347,0 -12.555,0 -8.286,0 -13.035,22.289 -6.836,22.289 5.229,0 5.933,-6.518 13.094,-6.518 5.792,0 9.192,6.436 13.056,6.436 6.194,0 1.528,-22.207 -6.759,-22.207 z m -12.5,11.143 c -2.294,0 -4.153,-1.859 -4.153,-4.15 0,-2.289 1.859,-4.148 4.153,-4.148 2.292,0 4.15,1.859 4.15,4.148 0,2.29 -1.859,4.15 -4.15,4.15 z M 20.023,12.42 c -0.677,-0.211 -1.055,-0.932 -0.84,-1.611 0.211,-0.676 0.932,-1.053 1.61,-0.84 0.677,0.209 1.058,0.93 0.843,1.607 -0.213,0.682 -0.934,1.055 -1.613,0.844 z m 3.891,3.079 c -0.322,1.033 -1.422,1.611 -2.457,1.285 -1.033,-0.322 -1.608,-1.422 -1.283,-2.457 0.322,-1.033 1.424,-1.611 2.457,-1.285 1.033,0.324 1.607,1.425 1.283,2.457 z m -0.739,-4.514 c -0.953,-0.303 -1.484,-1.32 -1.186,-2.271 0.301,-0.955 1.316,-1.488 2.27,-1.186 0.955,0.297 1.486,1.314 1.184,2.268 -0.295,0.953 -1.311,1.488 -2.268,1.189 z m 3.557,2.639 c -0.217,0.68 -0.936,1.055 -1.613,0.844 -0.676,-0.211 -1.055,-0.932 -0.844,-1.613 0.215,-0.678 0.938,-1.053 1.611,-0.844 0.68,0.214 1.057,0.933 0.846,1.613 z M 11.819,11.825 c 0,1.184 -0.956,2.141 -2.137,2.141 -1.183,0 -2.139,-0.957 -2.139,-2.141 0,-1.178 0.956,-2.137 2.139,-2.137 1.181,0 2.137,0.959 2.137,2.137 z"
       id="path4261" /></g></svg>