<?xml version="1.0" encoding="UTF-8" standalone="no"?>
<!-- Created with Inkscape (http://www.inkscape.org/) -->

<svg
   xmlns:dc="http://purl.org/dc/elements/1.1/"
   xmlns:cc="http://creativecommons.org/ns#"
   xmlns:rdf="http://www.w3.org/1999/02/22-rdf-syntax-ns#"
   xmlns:svg="http://www.w3.org/2000/svg"
   xmlns="http://www.w3.org/2000/svg"
   xmlns:sodipodi="http://sodipodi.sourceforge.net/DTD/sodipodi-0.dtd"
   xmlns:inkscape="http://www.inkscape.org/namespaces/inkscape"
   id="svg4247"
   version="1.1"
   inkscape:version="0.91 r13725"
   width="522"
   height="284"
   viewBox="0 0 522 284"
   sodipodi:docname="logo-codeacademie.svg">
  <metadata
     id="metadata4253">
    <rdf:RDF>
      <cc:Work
         rdf:about="">
        <dc:format>image/svg+xml</dc:format>
        <dc:type
           rdf:resource="http://purl.org/dc/dcmitype/StillImage" />
      </cc:Work>
    </rdf:RDF>
  </metadata>
  <defs
     id="defs4251" />
  <sodipodi:namedview
     pagecolor="#ffffff"
     bordercolor="#666666"
     borderopacity="1"
     objecttolerance="10"
     gridtolerance="10"
     guidetolerance="10"
     inkscape:pageopacity="0"
     inkscape:pageshadow="2"
     inkscape:window-width="1863"
     inkscape:window-height="1056"
     id="namedview4249"
     showgrid="false"
     inkscape:zoom="2.3754789"
     inkscape:cx="261"
     inkscape:cy="142"
     inkscape:window-x="57"
     inkscape:window-y="24"
     inkscape:window-maximized="1"
     inkscape:current-layer="svg4247" />
  <path
     style="fill:#f5f5f5;fill-opacity:1"
     d="m 138.63906,223.02229 c 0,-10.725 0.14711,-15.1125 0.32692,-9.75 0.17981,5.3625 0.17981,14.1375 0,19.5 -0.17981,5.3625 -0.32692,0.975 -0.32692,-9.75 z m 33.07284,17.13502 c -8.21245,-3.73084 -13.34822,-12.93578 -12.04947,-21.59649 0.79441,-5.29747 3.44923,-9.59101 8.14507,-13.1727 3.43186,-2.61761 4.46969,-2.86583 11.98231,-2.86583 7.80737,0 8.43334,0.16742 12.32784,3.29712 3.72724,2.99529 4.10283,3.10972 4.10283,1.25 0,-1.153 0.65516,-2.04712 1.5,-2.04712 1.27778,0 1.5,2.66667 1.5,18 0,15.33333 -0.22222,18 -1.5,18 -1.06212,0 -1.5,-1.07634 -1.5,-3.68709 l 0,-3.68709 -2.75,2.63404 c -5.91834,5.66879 -14.46125,7.19026 -21.75858,3.87516 z m 12.00858,-2.23377 c 7.57742,-2.06028 12.5,-8.6383 12.5,-16.70371 0,-5.42716 -2.46417,-10.00519 -7.32333,-13.60559 -3.98044,-2.94931 -14.35875,-2.96642 -18.29155,-0.0302 -6.20139,4.63001 -8.69301,10.83063 -7.16321,17.82634 1.64515,7.52324 6.54475,11.71664 15.77809,13.50393 0.275,0.0532 2.3,-0.39263 4.5,-0.99081 z m 33.99142,2.23377 c -12.19978,-5.54224 -15.9228,-21.09013 -7.49765,-31.31129 3.96491,-4.81013 8.59233,-6.82501 15.65736,-6.81757 6.06511,0.006 10.13558,1.52159 14.12284,5.25711 1.96387,1.83987 2.06233,2.24884 0.72202,2.99891 -1.08472,0.60704 -2.45558,0.10816 -4.55341,-1.65704 -10.34339,-8.70339 -26.94258,-0.94527 -26.94258,12.5924 0,11.3636 9.90027,19.36719 20.61838,16.66834 2.34214,-0.58976 5.03091,-1.92585 5.97502,-2.96909 0.94412,-1.04323 2.85027,-1.89679 4.2359,-1.89679 l 2.51933,0 -2.42432,2.63192 c -5.53178,6.00549 -14.95982,7.89804 -22.43289,4.5031 z m 42,0 c -8.21245,-3.73084 -13.34822,-12.93578 -12.04947,-21.59649 0.79441,-5.29747 3.44923,-9.59101 8.14507,-13.1727 3.43186,-2.61761 4.46969,-2.86583 11.98231,-2.86583 7.80737,0 8.43334,0.16742 12.32784,3.29712 3.72724,2.99529 4.10283,3.10972 4.10283,1.25 0,-1.153 0.65516,-2.04712 1.5,-2.04712 1.27778,0 1.5,2.66667 1.5,18 0,15.33333 -0.22222,18 -1.5,18 -1.06212,0 -1.5,-1.07634 -1.5,-3.68709 l 0,-3.68709 -2.75,2.63404 c -5.91834,5.66879 -14.46125,7.19026 -21.75858,3.87516 z m 12.00858,-2.23377 c 7.57742,-2.06028 12.5,-8.6383 12.5,-16.70371 0,-5.42716 -2.46417,-10.00519 -7.32333,-13.60559 -3.98044,-2.94931 -14.35875,-2.96642 -18.29155,-0.0302 -6.20139,4.63001 -8.69301,10.83063 -7.16321,17.82634 1.64515,7.52324 6.54475,11.71664 15.77809,13.50393 0.275,0.0532 2.3,-0.39263 4.5,-0.99081 z m 34.99142,2.23377 c -8.21245,-3.73084 -13.34822,-12.93578 -12.04947,-21.59649 0.79441,-5.29747 3.44923,-9.59101 8.14507,-13.1727 3.43186,-2.61761 4.46969,-2.86583 11.98231,-2.86583 7.80737,0 8.43334,0.16742 12.32784,3.29712 l 4.10283,3.29713 0,-13.54713 c 0,-11.37522 0.24048,-13.54712 1.5,-13.54712 1.29944,0 1.5,3.94444 1.5,29.5 0,25.55556 -0.20056,29.5 -1.5,29.5 -1.06212,0 -1.5,-1.07634 -1.5,-3.68709 l 0,-3.68709 -2.75,2.63404 c -5.91834,5.66879 -14.46125,7.19026 -21.75858,3.87516 z m 12.00858,-2.23377 c 7.57742,-2.06028 12.5,-8.6383 12.5,-16.70371 0,-5.42716 -2.46417,-10.00519 -7.32333,-13.60559 -3.98044,-2.94931 -14.35875,-2.96642 -18.29155,-0.0302 -6.20139,4.63001 -8.69301,10.83063 -7.16321,17.82634 1.64515,7.52324 6.54475,11.71664 15.77809,13.50393 0.275,0.0532 2.3,-0.39263 4.5,-0.99081 z m 33.99142,2.23377 c -5.22736,-2.37474 -10.11728,-8.03186 -11.55374,-13.36646 -2.32517,-8.63501 2.52017,-19.38528 10.42877,-23.13816 4.73307,-2.24599 14.23074,-2.13132 18.6241,0.22487 4.68388,2.51199 8.95158,8.01327 9.67507,12.47164 l 0.59606,3.67309 -18.26089,0 -18.26089,0 0.51766,4.59275 c 1.38579,12.29462 17.87595,18.22398 26.93274,9.68418 1.74086,-1.64148 3.29361,-2.30522 4.3998,-1.88073 1.53224,0.58798 1.46067,0.92618 -0.6903,3.26182 -5.50671,5.97946 -14.94866,7.86588 -22.40838,4.477 z m 23.07028,-24.23485 c 0.8053,-1.30301 -2.14075,-5.49674 -5.75925,-8.19834 -3.26834,-2.44017 -10.51529,-3.28174 -15.13389,-1.75746 -3.75842,1.24039 -9.66856,7.10277 -9.66856,9.59043 0,1.22156 2.48448,1.4652 14.94098,1.4652 9.78609,0 15.17551,-0.37946 15.62072,-1.09983 z m 82.92972,24.23485 c -5.22736,-2.37474 -10.11728,-8.03186 -11.55374,-13.36646 -2.32517,-8.63501 2.52017,-19.38528 10.42877,-23.13816 4.73307,-2.24599 14.23074,-2.13132 18.6241,0.22487 4.68388,2.51199 8.95158,8.01327 9.67507,12.47164 l 0.59606,3.67309 -18.26089,0 -18.26089,0 0.51766,4.59275 c 1.38579,12.29462 17.87595,18.22398 26.93274,9.68418 1.74086,-1.64148 3.29361,-2.30522 4.3998,-1.88073 1.53224,0.58798 1.46067,0.92618 -0.6903,3.26182 -5.50671,5.97946 -14.94866,7.86588 -22.40838,4.477 z m 23.07028,-24.23485 c 0.8053,-1.30301 -2.14075,-5.49674 -5.75925,-8.19834 -3.26834,-2.44017 -10.51529,-3.28174 -15.13389,-1.75746 -3.75842,1.24039 -9.66856,7.10277 -9.66856,9.59043 0,1.22156 2.48448,1.4652 14.94098,1.4652 9.78609,0 15.17551,-0.37946 15.62072,-1.09983 z m -95.5617,7.09983 0,-18 2.44098,0 c 1.34254,0 2.7191,-0.45 3.05902,-1 1.14348,-1.85018 9.05913,-1.13463 11.86514,1.07258 l 2.63486,2.07258 2.63486,-2.07258 c 3.28982,-2.58778 9.98328,-2.74244 12.9981,-0.30034 3.86246,3.12871 4.36704,5.57385 4.36704,21.16202 0,12.7251 -0.23304,15.06574 -1.5,15.06574 -1.26687,0 -1.5,-2.33838 -1.5,-15.04545 0,-14.64086 -0.066,-15.11147 -2.45455,-17.5 -3.03026,-3.03027 -7.76562,-3.23438 -10.54545,-0.45455 -1.82796,1.82796 -2,3.33333 -2,17.5 0,13.11111 -0.23118,15.5 -1.5,15.5 -1.26216,0 -1.5,-2.22774 -1.5,-14.04966 0,-15.61853 -1.04575,-19.42175 -5.65862,-20.57951 -3.61536,-0.90739 -7.55395,0.67832 -9.05538,3.64578 -0.83131,1.64299 -1.26151,7.30568 -1.27126,16.73339 -0.0124,11.99345 -0.25227,14.25 -1.51474,14.25 -1.27778,0 -1.5,-2.66667 -1.5,-18 z m 49,0 c 0,-15.33333 0.22222,-18 1.5,-18 1.27778,0 1.5,2.66667 1.5,18 0,15.33333 -0.22222,18 -1.5,18 -1.27778,0 -1.5,-2.66667 -1.5,-18 z m -1.38951,-26.57265 c -0.86832,-2.26283 1.22852,-4.5933 3.802,-4.22561 1.48048,0.21153 2.08751,1.02525 2.08751,2.79826 0,1.95377 -0.57294,2.56644 -2.62225,2.8041 -1.73288,0.20095 -2.84102,-0.26599 -3.26726,-1.37675 z m -76.61049,-0.12263 c 0,-2.03773 5.63829,-6.30472 8.33089,-6.30472 l 2.95671,0 -4.58381,3.5 c -4.37445,3.34014 -6.70379,4.31469 -6.70379,2.80472 z M 79.132605,160.97115 c -19.36077,-4.58802 -36.233631,-19.88771 -43.078815,-39.06229 -1.946887,-5.45358 -2.27912,-8.35874 -2.274218,-19.88657 0.0065,-15.267903 1.309072,-20.032443 8.675948,-31.734691 17.834071,-28.329335 56.586891,-36.470855 84.64793,-17.783551 11.65977,7.764846 11.19302,6.846183 6.10989,12.025508 -2.4251,2.471002 -4.76121,4.49273 -5.19135,4.49273 -0.43014,0 -3.67003,-1.977172 -7.19976,-4.393716 C 105.44346,54.099849 90.336848,52.540981 74.757462,59.875095 58.194128,67.67241 48.220481,83.700907 48.220481,102.52229 c 0,18.81177 10.007938,34.90322 26.5,42.60851 15.479573,7.23225 31.325309,5.45491 46.544359,-5.22065 3.21017,-2.2518 6.25899,-3.93526 6.77516,-3.74102 0.51617,0.19424 2.87806,2.1164 5.24866,4.27146 l 4.31017,3.91831 -4.16227,3.69369 c -5.45013,4.83656 -16.16943,10.40031 -23.86042,12.38452 -6.62477,1.70913 -24.184955,2.01717 -30.443535,0.53404 z m 126.087875,-0.53152 c -9.42622,-2.48688 -17.8425,-7.27346 -25.3826,-14.43581 -13.23649,-12.57337 -19.04336,-25.96573 -19.0702,-43.98153 -0.0187,-12.516573 2.52868,-21.712953 8.62851,-31.15056 17.46228,-27.01755 50.3951,-36.248168 79.69009,-22.336041 14.99979,7.12337 28.63355,24.335787 32.17529,40.620828 1.85085,8.5103 0.79006,25.886083 -2.03699,33.365773 -6.86275,18.15721 -23.36107,33.23233 -41.5564,37.97161 -7.42247,1.9333 -25.02562,1.90386 -32.4477,-0.0543 z m 23,-11.44604 c 24.98333,-3.89584 42.98235,-28.54276 39.00875,-53.416543 -1.45175,-9.08758 -3.41982,-13.97546 -8.48533,-21.07414 -13.30303,-18.642536 -36.83878,-24.669454 -57.38619,-14.695174 -6.82462,3.31286 -16.72075,12.926097 -20.37178,19.789414 -8.96339,16.8497 -7.2141,37.532813 4.41273,52.174713 6.81635,8.58396 18.1546,15.47873 28.22552,17.16387 7.1145,1.19045 7.32773,1.1913 14.5963,0.0579 z m -15,-32.4713 0,-9.5 9.5,0 9.5,0 0,9.5 0,9.5 -9.5,0 -9.5,0 0,-9.5 z m 0,-32.000003 0,-9.5 9.5,0 9.5,0 0,9.5 0,9.5 -9.5,0 -9.5,0 0,-9.5 z m 96,18.113343 0,-58.613344 17.75,0.01736 c 20.41963,0.01998 28.15814,1.284045 38.72131,6.32505 12.48006,5.955788 22.70444,17.310559 28.30338,31.432541 2.42386,6.11361 2.66653,7.95246 2.66912,20.225053 0.002,11.49573 -0.33325,14.44106 -2.26096,19.83859 -4.86514,13.62234 -15.54677,26.2882 -27.07768,32.10769 -11.01144,5.55731 -15.00571,6.28452 -37.35517,6.80094 l -20.75,0.47947 0,-58.61335 z m 44.10528,42.51491 c 12.32606,-4.7579 21.3264,-13.74422 25.94389,-25.90348 8.18331,-21.549163 -1.63614,-48.336373 -21.04917,-57.421615 -7.42035,-3.472703 -14.35888,-4.803159 -25.04922,-4.803159 l -8.95078,0 0,45.623254 0,45.62326 11.75,-0.4773 c 8.78079,-0.35669 13.16645,-1.02405 17.35528,-2.64096 z m 70.89472,-42.62825 0,-58.500004 32,0 c 20.66667,0 32,0.354167 32,1 0,0.55 -0.19562,1 -0.43471,1 -0.2391,0 -11.06848,2.25 -24.06529,5 -12.99681,2.75 -23.82619,5 -24.06529,5 -0.23909,0 -0.43471,20.925001 -0.43471,46.500004 0,25.575 0.3375,46.50311 0.75,46.50692 0.69236,0.006 40.90625,8.31654 46,9.50585 1.2375,0.28893 2.25,0.96676 2.25,1.50628 0,0.62083 -11.74767,0.98095 -32,0.98095 l -32,0 0,-58.5 z m 28.25,3.27115 c -5.84028,-0.7739 -7.25,-1.29756 -7.25,-2.69308 0,-1.34233 1.46089,-2.00155 6.48856,-2.92793 3.56871,-0.657563 7.84371,-1.466603 9.5,-1.797853 3.00132,-0.60027 3.01144,-0.58675 3.01144,4.022713 0,5.26735 0.74532,5.05193 -11.75,3.39615 z"
     id="path4312"
     inkscape:connector-curvature="0" />
</svg>
