<?xml version="1.0" encoding="UTF-8" standalone="no"?>
<!-- Created with Inkscape (http://www.inkscape.org/) -->

<svg
   xmlns:dc="http://purl.org/dc/elements/1.1/"
   xmlns:cc="http://creativecommons.org/ns#"
   xmlns:rdf="http://www.w3.org/1999/02/22-rdf-syntax-ns#"
   xmlns:svg="http://www.w3.org/2000/svg"
   xmlns="http://www.w3.org/2000/svg"
   xmlns:sodipodi="http://sodipodi.sourceforge.net/DTD/sodipodi-0.dtd"
   xmlns:inkscape="http://www.inkscape.org/namespaces/inkscape"
   width="50"
   height="50"
   viewBox="0 0 50.000001 50.000001"
   id="svg4941"
   version="1.1"
   inkscape:version="0.91 r13725"
   sodipodi:docname="invaders6.svg">
  <defs
     id="defs4943" />
  <sodipodi:namedview
     id="base"
     pagecolor="#ffffff"
     bordercolor="#666666"
     borderopacity="1.0"
     inkscape:pageopacity="0.0"
     inkscape:pageshadow="2"
     inkscape:zoom="5.1351562"
     inkscape:cx="72.394165"
     inkscape:cy="78.179588"
     inkscape:document-units="px"
     inkscape:current-layer="layer1"
     showgrid="false"
     units="px"
     inkscape:window-width="1863"
     inkscape:window-height="1056"
     inkscape:window-x="57"
     inkscape:window-y="24"
     inkscape:window-maximized="1" />
  <metadata
     id="metadata4946">
    <rdf:RDF>
      <cc:Work
         rdf:about="">
        <dc:format>image/svg+xml</dc:format>
        <dc:type
           rdf:resource="http://purl.org/dc/dcmitype/StillImage" />
        <dc:title></dc:title>
      </cc:Work>
    </rdf:RDF>
  </metadata>
  <g
     inkscape:label="Calque 1"
     inkscape:groupmode="layer"
     id="layer1"
     transform="translate(0,-1002.3622)">
    <path
       inkscape:connector-curvature="0"
       id="path4180"
       style="fill:#ffffff;fill-opacity:1;fill-rule:nonzero;stroke:none"
       d="m 31.3079,1014.5899 6.075084,0 0,6.3863 -6.075084,0 0,-6.3863 z m -18.690884,6.3863 0,-6.3863 6.074476,0 0,6.3863 -6.074476,0 z m 31.152892,0 0,-12.7726 -6.2307,0 0,-6.3863 -6.386924,0 0,6.3863 -12.304568,0 0,-6.3863 -6.386924,0 0,6.3863 -6.230092,0 0,12.7726 -6.2307,0 0,12.7721 6.2307,0 0,12.7726 6.230092,0 0,6.3863 6.386924,0 0,-19.1589 12.304568,0 0,19.1589 6.386924,0 0,-6.3863 6.2307,0 0,-12.7726 6.230092,0 0,-12.7721 -6.230092,0" />
  </g>
</svg>
