<?xml version="1.0" encoding="UTF-8" standalone="no"?>
<!-- Created with Inkscape (http://www.inkscape.org/) -->

<svg
   xmlns:dc="http://purl.org/dc/elements/1.1/"
   xmlns:cc="http://creativecommons.org/ns#"
   xmlns:rdf="http://www.w3.org/1999/02/22-rdf-syntax-ns#"
   xmlns:svg="http://www.w3.org/2000/svg"
   xmlns="http://www.w3.org/2000/svg"
   xmlns:sodipodi="http://sodipodi.sourceforge.net/DTD/sodipodi-0.dtd"
   xmlns:inkscape="http://www.inkscape.org/namespaces/inkscape"
   width="50"
   height="50"
   viewBox="0 0 50.000001 50.000001"
   id="svg4941"
   version="1.1"
   inkscape:version="0.91 r13725"
   sodipodi:docname="invaders16.svg">
  <defs
     id="defs4943" />
  <sodipodi:namedview
     id="base"
     pagecolor="#ffffff"
     bordercolor="#666666"
     borderopacity="1.0"
     inkscape:pageopacity="0.0"
     inkscape:pageshadow="2"
     inkscape:zoom="5.1351562"
     inkscape:cx="72.394165"
     inkscape:cy="78.179588"
     inkscape:document-units="px"
     inkscape:current-layer="layer1"
     showgrid="false"
     units="px"
     inkscape:window-width="1863"
     inkscape:window-height="1056"
     inkscape:window-x="57"
     inkscape:window-y="24"
     inkscape:window-maximized="1" />
  <metadata
     id="metadata4946">
    <rdf:RDF>
      <cc:Work
         rdf:about="">
        <dc:format>image/svg+xml</dc:format>
        <dc:type
           rdf:resource="http://purl.org/dc/dcmitype/StillImage" />
        <dc:title></dc:title>
      </cc:Work>
    </rdf:RDF>
  </metadata>
  <g
     inkscape:label="Calque 1"
     inkscape:groupmode="layer"
     id="layer1"
     transform="translate(0,-1002.3622)">
    <path
       inkscape:connector-curvature="0"
       id="path4392"
       style="fill:#fafafa;fill-opacity:1;fill-rule:nonzero;stroke:none"
       d="m 11.474963,1033.0633 0,-6.3707 5.145749,0 0,6.3707 -5.145749,0 z m 27.491462,-11.3571 0,11.3571 -5.58657,0 0,-6.0944 5.540048,0 0,-5.2627 0.04652,0 z m 5.678479,0 -0.184952,0 0,-5.6791 -5.540049,0 0,-5.6785 -5.540048,0 0,-0.046 11.080097,0 0,-5.679 -11.218527,0 0,0.047 -5.540616,0 0,11.3575 -5.401618,0 0,-11.3575 -5.678479,0 0,0.2071 -11.080096,0 0,5.679 5.539481,0 0,5.4714 -5.539481,0 0,5.6791 -5.540616,0 0,17.0361 5.540616,0 0,5.6785 5.539481,0 0,5.679 5.679046,0 0,-5.679 16.482282,0 0,5.679 5.678478,0 0,-5.679 5.540049,0 0,-5.6785 5.540048,0 0,-17.0361 -5.355096,0" />
  </g>
</svg>
