<?xml version="1.0" encoding="UTF-8" standalone="no"?>
<!-- Generator: Adobe Illustrator 19.0.0, SVG Export Plug-In . SVG Version: 6.00 Build 0)  -->

<svg
   xmlns:dc="http://purl.org/dc/elements/1.1/"
   xmlns:cc="http://creativecommons.org/ns#"
   xmlns:rdf="http://www.w3.org/1999/02/22-rdf-syntax-ns#"
   xmlns:svg="http://www.w3.org/2000/svg"
   xmlns="http://www.w3.org/2000/svg"
   xmlns:sodipodi="http://sodipodi.sourceforge.net/DTD/sodipodi-0.dtd"
   xmlns:inkscape="http://www.inkscape.org/namespaces/inkscape"
   version="1.1"
   id="Capa_1"
   x="0px"
   y="0px"
   viewBox="0 0 512 410"
   xml:space="preserve"
   inkscape:version="0.91 r13725"
   sodipodi:docname="invaders.svg"
   width="512"
   height="410"><metadata
     id="metadata7856"><rdf:RDF><cc:Work
         rdf:about=""><dc:format>image/svg+xml</dc:format><dc:type
           rdf:resource="http://purl.org/dc/dcmitype/StillImage" /><dc:title /></cc:Work></rdf:RDF></metadata><defs
     id="defs7854" /><sodipodi:namedview
     pagecolor="#ffffff"
     bordercolor="#666666"
     borderopacity="1"
     objecttolerance="10"
     gridtolerance="10"
     guidetolerance="10"
     inkscape:pageopacity="0"
     inkscape:pageshadow="2"
     inkscape:window-width="1863"
     inkscape:window-height="1056"
     id="namedview7852"
     showgrid="false"
     inkscape:zoom="0.27406798"
     inkscape:cx="104.90222"
     inkscape:cy="136.05212"
     inkscape:window-x="57"
     inkscape:window-y="24"
     inkscape:window-maximized="1"
     inkscape:current-layer="Capa_1" /><g
     id="g7810"
     style="fill:#ffffff;fill-opacity:1"
     transform="translate(0,-50.800007)"><rect
       x="358.39001"
       y="51.200001"
       style="fill:#ffffff;fill-opacity:1"
       width="51.209999"
       height="51.200001"
       id="rect7812" /><rect
       x="102.39"
       y="51.200001"
       style="fill:#ffffff;fill-opacity:1"
       width="51.200001"
       height="51.200001"
       id="rect7814" /><rect
       x="102.39"
       y="409.60001"
       style="fill:#ffffff;fill-opacity:1"
       width="51.200001"
       height="51.200001"
       id="rect7816" /><rect
       x="358.39001"
       y="409.60001"
       style="fill:#ffffff;fill-opacity:1"
       width="51.209999"
       height="51.200001"
       id="rect7818" /><path
       style="fill:#ffffff;fill-opacity:1"
       d="m 512,307.19 0,51.2 -51.2,0 0,-51.2 -51.2,0 0,51.2 -51.21,0 0,51.21 -51.2,0 0,-51.21 -51.2,0 -51.2,0 0,51.21 -51.2,0 0,-51.21 -51.2,0 0,-51.2 -51.19,0 0,51.2 -51.2,0 0,-51.2 0,-51.2 51.2,0 0,-51.19 51.19,0 0,-51.2 51.2,0 0,-51.2 51.2,0 0,51.2 51.2,0 51.2,0 0,-51.2 51.2,0 0,51.2 51.21,0 0,51.2 51.2,0 0,51.19 51.2,0 0,51.2 z m -153.61,-51.2 0,-51.19 -51.2,0 0,51.19 51.2,0 z m -153.6,0 0,-51.19 -51.2,0 0,51.19 51.2,0 z"
       id="path7820"
       inkscape:connector-curvature="0" /></g><g
     id="g7822"
     transform="translate(0,-102)" /><g
     id="g7824"
     transform="translate(0,-102)" /><g
     id="g7826"
     transform="translate(0,-102)" /><g
     id="g7828"
     transform="translate(0,-102)" /><g
     id="g7830"
     transform="translate(0,-102)" /><g
     id="g7832"
     transform="translate(0,-102)" /><g
     id="g7834"
     transform="translate(0,-102)" /><g
     id="g7836"
     transform="translate(0,-102)" /><g
     id="g7838"
     transform="translate(0,-102)" /><g
     id="g7840"
     transform="translate(0,-102)" /><g
     id="g7842"
     transform="translate(0,-102)" /><g
     id="g7844"
     transform="translate(0,-102)" /><g
     id="g7846"
     transform="translate(0,-102)" /><g
     id="g7848"
     transform="translate(0,-102)" /><g
     id="g7850"
     transform="translate(0,-102)" /></svg>