<?xml version="1.0" encoding="UTF-8" standalone="no"?>
<!-- Created with Inkscape (http://www.inkscape.org/) -->

<svg
   xmlns:dc="http://purl.org/dc/elements/1.1/"
   xmlns:cc="http://creativecommons.org/ns#"
   xmlns:rdf="http://www.w3.org/1999/02/22-rdf-syntax-ns#"
   xmlns:svg="http://www.w3.org/2000/svg"
   xmlns="http://www.w3.org/2000/svg"
   xmlns:sodipodi="http://sodipodi.sourceforge.net/DTD/sodipodi-0.dtd"
   xmlns:inkscape="http://www.inkscape.org/namespaces/inkscape"
   width="50"
   height="50"
   viewBox="0 0 50.000001 50.000001"
   id="svg4941"
   version="1.1"
   inkscape:version="0.91 r13725"
   sodipodi:docname="invaders11.svg">
  <defs
     id="defs4943" />
  <sodipodi:namedview
     id="base"
     pagecolor="#ffffff"
     bordercolor="#666666"
     borderopacity="1.0"
     inkscape:pageopacity="0.0"
     inkscape:pageshadow="2"
     inkscape:zoom="5.1351562"
     inkscape:cx="72.394165"
     inkscape:cy="78.179588"
     inkscape:document-units="px"
     inkscape:current-layer="layer1"
     showgrid="false"
     units="px"
     inkscape:window-width="1863"
     inkscape:window-height="1056"
     inkscape:window-x="57"
     inkscape:window-y="24"
     inkscape:window-maximized="1" />
  <metadata
     id="metadata4946">
    <rdf:RDF>
      <cc:Work
         rdf:about="">
        <dc:format>image/svg+xml</dc:format>
        <dc:type
           rdf:resource="http://purl.org/dc/dcmitype/StillImage" />
        <dc:title></dc:title>
      </cc:Work>
    </rdf:RDF>
  </metadata>
  <g
     inkscape:label="Calque 1"
     inkscape:groupmode="layer"
     id="layer1"
     transform="translate(0,-1002.3622)">
    <path
       inkscape:connector-curvature="0"
       id="path4320"
       style="fill:#ffffff;fill-opacity:1;fill-rule:nonzero;stroke:none"
       d="m 5.678551,1021.6839 10.942533,0 0,5.6786 -5.540181,0 0,5.6785 -5.402352,0 0,-11.3571 z m 38.641277,5.6786 -5.5391,0 0,5.6785 -5.401812,0 0,-11.3571 10.940912,0 0,5.6786 z m 0.13891,-11.3571 0,-5.6786 -5.539641,0 0,-5.6785 -11.219272,0 0,5.6785 -5.400731,0 0,-5.6785 -11.218191,0 0,5.6785 -5.539641,0 0,5.6786 -5.541262,0 0,34.0707 5.678551,0 0,-5.6786 5.402352,0 0,5.6786 5.67855,0 0,-5.6786 5.400731,0 0,5.6786 5.679091,0 0,-5.6786 5.400731,0 0,5.6786 5.679091,0 0,-5.6786 5.400731,0 0,5.6786 5.680172,0 0,-34.0707 -5.541262,0" />
  </g>
</svg>
