<?xml version="1.0" encoding="UTF-8" standalone="no"?>
<!-- Created with Inkscape (http://www.inkscape.org/) -->

<svg
   xmlns:dc="http://purl.org/dc/elements/1.1/"
   xmlns:cc="http://creativecommons.org/ns#"
   xmlns:rdf="http://www.w3.org/1999/02/22-rdf-syntax-ns#"
   xmlns:svg="http://www.w3.org/2000/svg"
   xmlns="http://www.w3.org/2000/svg"
   xmlns:sodipodi="http://sodipodi.sourceforge.net/DTD/sodipodi-0.dtd"
   xmlns:inkscape="http://www.inkscape.org/namespaces/inkscape"
   width="50"
   height="50"
   viewBox="0 0 50.000001 50.000001"
   id="svg4941"
   version="1.1"
   inkscape:version="0.91 r13725"
   sodipodi:docname="invaders4.svg">
  <defs
     id="defs4943" />
  <sodipodi:namedview
     id="base"
     pagecolor="#ffffff"
     bordercolor="#666666"
     borderopacity="1.0"
     inkscape:pageopacity="0.0"
     inkscape:pageshadow="2"
     inkscape:zoom="5.1351562"
     inkscape:cx="95.76249"
     inkscape:cy="78.179588"
     inkscape:document-units="px"
     inkscape:current-layer="layer1"
     showgrid="false"
     units="px"
     inkscape:window-width="1863"
     inkscape:window-height="1056"
     inkscape:window-x="57"
     inkscape:window-y="24"
     inkscape:window-maximized="1" />
  <metadata
     id="metadata4946">
    <rdf:RDF>
      <cc:Work
         rdf:about="">
        <dc:format>image/svg+xml</dc:format>
        <dc:type
           rdf:resource="http://purl.org/dc/dcmitype/StillImage" />
        <dc:title></dc:title>
      </cc:Work>
    </rdf:RDF>
  </metadata>
  <g
     inkscape:label="Calque 1"
     inkscape:groupmode="layer"
     id="layer1"
     transform="translate(0,-1002.3622)">
    <path
       inkscape:connector-curvature="0"
       id="path4278"
       style="fill:#ffffff;fill-opacity:1;fill-rule:nonzero;stroke:none"
       d="m 11.07988,1021.7065 5.541022,0 0,5.6794 -10.943125,0 0,-5.6794 5.402103,0 z m 16.621442,17.036 -5.402644,0 0,-5.6788 5.402644,0 0,5.6788 z m 11.080962,-17.036 5.53994,0 0,5.6794 -10.942584,0 0,-5.6794 5.402644,0 z m 5.678318,-5.6788 -11.080962,0 0,-5.7249 11.080962,0 0,-5.6788 -11.21934,0 0,0.046 -5.53994,0 0,5.6783 -5.402644,0 0,-5.6783 -5.677776,0 0,0.1379 -11.080421,0 0,5.8637 11.080421,0 0,5.3557 -16.620902,0 0,22.7148 5.540481,0 0,5.6794 5.539399,0 0,5.6789 5.679399,0 0,-5.6789 5.401563,0 0,5.6789 5.678318,0 0,-5.6789 5.402102,0 0,5.6789 5.678858,0 0,-5.6789 5.540482,0 0,-5.6794 5.539398,0 0,-22.7148 -5.539398,0" />
  </g>
</svg>
