<?xml version="1.0" encoding="UTF-8" standalone="no"?>
<!-- Created with Inkscape (http://www.inkscape.org/) -->

<svg
   xmlns:dc="http://purl.org/dc/elements/1.1/"
   xmlns:cc="http://creativecommons.org/ns#"
   xmlns:rdf="http://www.w3.org/1999/02/22-rdf-syntax-ns#"
   xmlns:svg="http://www.w3.org/2000/svg"
   xmlns="http://www.w3.org/2000/svg"
   xmlns:sodipodi="http://sodipodi.sourceforge.net/DTD/sodipodi-0.dtd"
   xmlns:inkscape="http://www.inkscape.org/namespaces/inkscape"
   width="50"
   height="50"
   viewBox="0 0 50.000001 50.000001"
   id="svg4941"
   version="1.1"
   inkscape:version="0.91 r13725"
   sodipodi:docname="invaders1.svg">
  <defs
     id="defs4943" />
  <sodipodi:namedview
     id="base"
     pagecolor="#ffffff"
     bordercolor="#666666"
     borderopacity="1.0"
     inkscape:pageopacity="0.0"
     inkscape:pageshadow="2"
     inkscape:zoom="5.1351562"
     inkscape:cx="46.299535"
     inkscape:cy="-33.014692"
     inkscape:document-units="px"
     inkscape:current-layer="layer1"
     showgrid="false"
     units="px"
     inkscape:window-width="1863"
     inkscape:window-height="1056"
     inkscape:window-x="57"
     inkscape:window-y="24"
     inkscape:window-maximized="1" />
  <metadata
     id="metadata4946">
    <rdf:RDF>
      <cc:Work
         rdf:about="">
        <dc:format>image/svg+xml</dc:format>
        <dc:type
           rdf:resource="http://purl.org/dc/dcmitype/StillImage" />
        <dc:title></dc:title>
      </cc:Work>
    </rdf:RDF>
  </metadata>
  <g
     inkscape:label="Calque 1"
     inkscape:groupmode="layer"
     id="layer1"
     transform="translate(0,-1002.3622)">
    <path
       inkscape:connector-curvature="0"
       id="path4222"
       style="fill:#ffffff;fill-opacity:1;fill-rule:nonzero;stroke:none"
       d="m 5.6788538,1027.3625 0,-5.6793 10.9416142,0 0,5.6793 -10.9416142,0 z m 38.6429362,0 -10.942372,0 0,-5.6793 10.942372,0 0,5.6793 z m 0.137832,-11.358 0,-5.6782 -5.539829,0 0,-5.6788 -11.21858,0 0,5.6788 -5.401999,0 0,-5.6788 -11.218577,0 0,5.6788 -5.5404818,0 0,5.6782 -5.540155925,0 0,17.0362 5.540155925,0 0,11.3575 0.09227,0 0,5.6787 11.0345268,0 0,-5.6787 -5.447943,0 0,-5.6794 27.562408,0 0,5.5409 -5.586857,0 0,5.6782 11.218577,0 0,-5.5398 0.04649,0 0,-11.3575 5.540374,0 0,-17.0362 -5.540374,0" />
  </g>
</svg>
