<?xml version="1.0" encoding="UTF-8" standalone="no"?>
<!-- Generator: Adobe Illustrator 19.0.0, SVG Export Plug-In . SVG Version: 6.00 Build 0)  -->

<svg
   xmlns:dc="http://purl.org/dc/elements/1.1/"
   xmlns:cc="http://creativecommons.org/ns#"
   xmlns:rdf="http://www.w3.org/1999/02/22-rdf-syntax-ns#"
   xmlns:svg="http://www.w3.org/2000/svg"
   xmlns="http://www.w3.org/2000/svg"
   xmlns:sodipodi="http://sodipodi.sourceforge.net/DTD/sodipodi-0.dtd"
   xmlns:inkscape="http://www.inkscape.org/namespaces/inkscape"
   version="1.1"
   id="Layer_1"
   x="0px"
   y="0px"
   viewBox="0 0 496.158 250"
   xml:space="preserve"
   inkscape:version="0.91 r13725"
   sodipodi:docname="001-three.svg"
   width="496.15799"
   height="250"><metadata
     id="metadata4377"><rdf:RDF><cc:Work
         rdf:about=""><dc:format>image/svg+xml</dc:format><dc:type
           rdf:resource="http://purl.org/dc/dcmitype/StillImage" /><dc:title></dc:title></cc:Work></rdf:RDF></metadata><defs
     id="defs4375" /><sodipodi:namedview
     pagecolor="#ffffff"
     bordercolor="#666666"
     borderopacity="1"
     objecttolerance="10"
     gridtolerance="10"
     guidetolerance="10"
     inkscape:pageopacity="0"
     inkscape:pageshadow="2"
     inkscape:window-width="1863"
     inkscape:window-height="1056"
     id="namedview4373"
     showgrid="false"
     inkscape:zoom="1.7446875"
     inkscape:cx="248.07899"
     inkscape:cy="248.07899"
     inkscape:window-x="57"
     inkscape:window-y="24"
     inkscape:window-maximized="1"
     inkscape:current-layer="Layer_1" /><rect
     style="fill:#2e8b57;fill-opacity:1;stroke:none;stroke-width:15.59799957;stroke-miterlimit:4;stroke-dasharray:none;stroke-opacity:1"
     id="rect5459"
     width="496.15201"
     height="250"
     x="0"
     y="-250"
     transform="scale(1,-1)" /><path
     style="fill:#ffffff"
     d="m 272.35947,131.93435 c -0.90122,-2.18557 -2.24503,-4.18009 -4.03006,-5.98254 -1.78604,-1.80211 -3.98016,-3.40429 -6.58336,-4.8062 2.70334,-2.2693 4.78091,-4.59704 6.23272,-6.98391 1.4518,-2.38584 2.1777,-5.24775 2.1777,-8.58574 0,-2.53588 -0.50068,-4.906 -1.50204,-7.10899 -1.00136,-2.203 -2.48666,-4.13806 -4.45555,-5.80722 -1.96958,-1.66849 -4.28911,-2.94497 -6.95862,-3.82979 -2.67053,-0.8838 -5.62438,-1.32672 -8.8612,-1.32672 -3.7047,0 -7.05876,0.52563 -10.0625,1.57689 -3.00375,1.05126 -5.5157,2.44531 -7.53449,4.18009 -2.01981,1.73581 -3.55432,3.56321 -4.60592,5.48186 -1.05126,1.91968 -1.57689,3.74674 -1.57689,5.48187 0,1.80211 0.55844,3.24639 1.67702,4.33046 1.11791,1.0851 2.34415,1.62713 3.67975,1.62713 1.13431,0 2.13568,-0.20027 3.00375,-0.60082 0.86739,-0.40054 1.46821,-0.95112 1.80211,-1.65207 0.56698,-1.30177 1.19275,-2.68625 1.8773,-4.15515 0.68352,-1.46821 1.40977,-2.66984 2.17771,-3.60456 0.76725,-0.93403 1.80997,-1.68489 3.12883,-2.25289 1.31783,-0.56699 2.9952,-0.85099 5.03142,-0.85099 3.00375,0 5.38959,0.92617 7.15889,2.77852 1.76862,1.85235 2.65344,4.0639 2.65344,6.63326 0,3.37148 -1.11004,5.9576 -3.32911,7.75971 -2.22008,1.80211 -4.86464,2.70334 -7.93503,2.70334 l -2.05262,0 c -2.37012,0 -4.15514,0.49282 -5.35678,1.47675 -1.20163,0.98496 -1.80211,2.27784 -1.80211,3.88002 0,1.63568 0.50068,2.91216 1.50205,3.82979 1.00136,0.91831 2.41933,1.37662 4.25528,1.37662 0.40054,0 1.30177,-0.0663 2.70333,-0.20028 1.40191,-0.13294 2.43574,-0.20027 3.10389,-0.20027 3.80483,0 6.77474,1.11004 8.9111,3.3291 2.13567,2.22009 3.20402,5.28159 3.20402,9.18657 0,2.63703 -0.62577,4.95623 -1.8773,6.95861 -1.25153,2.00239 -2.83731,3.51297 -4.75596,4.53074 -1.91968,1.01845 -3.91352,1.52699 -5.98255,1.52699 -3.60456,0 -6.40017,-1.12644 -8.38547,-3.37934 -1.98632,-2.25289 -3.84687,-5.69854 -5.582,-10.33796 -0.2676,-0.76725 -0.83458,-1.42685 -1.70197,-1.97743 -0.86842,-0.55058 -1.7693,-0.82604 -2.70334,-0.82604 -1.86944,0 -3.42924,0.59296 -4.68077,1.77716 -1.25153,1.18523 -1.8773,2.74572 -1.8773,4.68077 0,1.50205 0.52563,3.40429 1.57689,5.70709 1.05126,2.30279 2.6032,4.53074 4.65582,6.6835 2.05263,2.15276 4.66369,3.94701 7.8349,5.38173 3.17018,1.43471 6.75834,2.15275 10.76345,2.15275 3.93778,0 7.53448,-0.62576 10.7884,-1.87729 3.25392,-1.25154 6.06559,-2.98666 8.43571,-5.20641 2.36944,-2.21906 4.16301,-4.74742 5.38173,-7.58438 1.2177,-2.83629 1.8274,-5.77373 1.8274,-8.81097 0,-2.53553 -0.45078,-4.89676 -1.35167,-7.08336 z"
     id="path4341"
     inkscape:connector-curvature="0" /><g
     id="g4343"
     transform="translate(0,-246.15799)" /><g
     id="g4345"
     transform="translate(0,-246.15799)" /><g
     id="g4347"
     transform="translate(0,-246.15799)" /><g
     id="g4349"
     transform="translate(0,-246.15799)" /><g
     id="g4351"
     transform="translate(0,-246.15799)" /><g
     id="g4353"
     transform="translate(0,-246.15799)" /><g
     id="g4355"
     transform="translate(0,-246.15799)" /><g
     id="g4357"
     transform="translate(0,-246.15799)" /><g
     id="g4359"
     transform="translate(0,-246.15799)" /><g
     id="g4361"
     transform="translate(0,-246.15799)" /><g
     id="g4363"
     transform="translate(0,-246.15799)" /><g
     id="g4365"
     transform="translate(0,-246.15799)" /><g
     id="g4367"
     transform="translate(0,-246.15799)" /><g
     id="g4369"
     transform="translate(0,-246.15799)" /><g
     id="g4371"
     transform="translate(0,-246.15799)" /></svg>