<?xml version="1.0" encoding="UTF-8" standalone="no"?>
<!-- Generator: Adobe Illustrator 19.0.0, SVG Export Plug-In . SVG Version: 6.00 Build 0)  -->

<svg
   xmlns:dc="http://purl.org/dc/elements/1.1/"
   xmlns:cc="http://creativecommons.org/ns#"
   xmlns:rdf="http://www.w3.org/1999/02/22-rdf-syntax-ns#"
   xmlns:svg="http://www.w3.org/2000/svg"
   xmlns="http://www.w3.org/2000/svg"
   xmlns:sodipodi="http://sodipodi.sourceforge.net/DTD/sodipodi-0.dtd"
   xmlns:inkscape="http://www.inkscape.org/namespaces/inkscape"
   version="1.1"
   id="Layer_1"
   x="0px"
   y="0px"
   viewBox="0 0 496.158 250.00001"
   xml:space="preserve"
   inkscape:version="0.91 r13725"
   sodipodi:docname="003-one.svg"
   width="496.15799"
   height="250"><metadata
     id="metadata4295"><rdf:RDF><cc:Work
         rdf:about=""><dc:format>image/svg+xml</dc:format><dc:type
           rdf:resource="http://purl.org/dc/dcmitype/StillImage" /><dc:title></dc:title></cc:Work></rdf:RDF></metadata><defs
     id="defs4293" /><sodipodi:namedview
     pagecolor="#ffffff"
     bordercolor="#666666"
     borderopacity="1"
     objecttolerance="10"
     gridtolerance="10"
     guidetolerance="10"
     inkscape:pageopacity="0"
     inkscape:pageshadow="2"
     inkscape:window-width="1863"
     inkscape:window-height="1056"
     id="namedview4291"
     showgrid="false"
     inkscape:zoom="0.90509668"
     inkscape:cx="704.76534"
     inkscape:cy="353.31286"
     inkscape:window-x="57"
     inkscape:window-y="24"
     inkscape:window-maximized="1"
     inkscape:current-layer="Layer_1" /><rect
     style="fill:#ff1493;fill-opacity:1;stroke:none;stroke-width:15.59799957;stroke-miterlimit:4;stroke-dasharray:none;stroke-opacity:1"
     id="rect5459"
     width="496.15204"
     height="250.00002"
     x="0.0029749917"
     y="-250.00002"
     transform="scale(1,-1)" /><path
     style="fill:#ffffff"
     d="m 264.06601,90.495377 c -1.03854,-1.32992 -2.4173,-1.99537 -4.13658,-1.99537 -1.52526,0 -2.56348,0.29203 -3.11465,0.87609 -0.55216,0.58405 -1.73622,2.14121 -3.55252,4.67213 -1.81729,2.53059 -3.90169,4.81799 -6.25355,6.861863 -2.35284,2.04387 -5.49174,3.99073 -9.41702,5.83992 -2.62793,1.23323 -4.46151,2.23856 -5.49939,3.0173 -1.03855,0.77875 -1.55749,1.99537 -1.55749,3.64987 0,1.42792 0.52691,2.68508 1.58174,3.77179 1.05383,1.08739 2.26315,1.63025 3.62561,1.63025 2.85452,0 8.40274,-3.16315 16.64401,-9.48979 l 0,44.28645 c 0,2.59604 0.60001,4.55885 1.80068,5.88876 1.20002,1.32991 2.78973,1.99537 4.76915,1.99537 4.44456,0 6.66717,-3.26049 6.66717,-9.78182 l 0,-55.723433 c 0,-2.3359 -0.51894,-4.16847 -1.55716,-5.49938 z"
     id="path4259"
     inkscape:connector-curvature="0" /><g
     id="g4261"
     transform="translate(0,-246.15799)" /><g
     id="g4263"
     transform="translate(0,-246.15799)" /><g
     id="g4265"
     transform="translate(0,-246.15799)" /><g
     id="g4267"
     transform="translate(0,-246.15799)" /><g
     id="g4269"
     transform="translate(0,-246.15799)" /><g
     id="g4271"
     transform="translate(0,-246.15799)" /><g
     id="g4273"
     transform="translate(0,-246.15799)" /><g
     id="g4275"
     transform="translate(0,-246.15799)" /><g
     id="g4277"
     transform="translate(0,-246.15799)" /><g
     id="g4279"
     transform="translate(0,-246.15799)" /><g
     id="g4281"
     transform="translate(0,-246.15799)" /><g
     id="g4283"
     transform="translate(0,-246.15799)" /><g
     id="g4285"
     transform="translate(0,-246.15799)" /><g
     id="g4287"
     transform="translate(0,-246.15799)" /><g
     id="g4289"
     transform="translate(0,-246.15799)" /></svg>