<?xml version="1.0" encoding="UTF-8" standalone="no"?>
<!-- Generator: Adobe Illustrator 19.0.0, SVG Export Plug-In . SVG Version: 6.00 Build 0)  -->

<svg
   xmlns:dc="http://purl.org/dc/elements/1.1/"
   xmlns:cc="http://creativecommons.org/ns#"
   xmlns:rdf="http://www.w3.org/1999/02/22-rdf-syntax-ns#"
   xmlns:svg="http://www.w3.org/2000/svg"
   xmlns="http://www.w3.org/2000/svg"
   xmlns:sodipodi="http://sodipodi.sourceforge.net/DTD/sodipodi-0.dtd"
   xmlns:inkscape="http://www.inkscape.org/namespaces/inkscape"
   version="1.1"
   id="Layer_1"
   x="0px"
   y="0px"
   viewBox="0 0 496.158 250.00001"
   xml:space="preserve"
   inkscape:version="0.91 r13725"
   sodipodi:docname="003-one.svg"
   width="496.15799"
   height="250"><metadata
     id="metadata4295"><rdf:RDF><cc:Work
         rdf:about=""><dc:format>image/svg+xml</dc:format><dc:type
           rdf:resource="http://purl.org/dc/dcmitype/StillImage" /><dc:title></dc:title></cc:Work></rdf:RDF></metadata><defs
     id="defs4293" /><sodipodi:namedview
     pagecolor="#ffffff"
     bordercolor="#666666"
     borderopacity="1"
     objecttolerance="10"
     gridtolerance="10"
     guidetolerance="10"
     inkscape:pageopacity="0"
     inkscape:pageshadow="2"
     inkscape:window-width="1863"
     inkscape:window-height="1056"
     id="namedview4291"
     showgrid="false"
     inkscape:zoom="0.32743156"
     inkscape:cx="765.12889"
     inkscape:cy="-772.77035"
     inkscape:window-x="57"
     inkscape:window-y="24"
     inkscape:window-maximized="1"
     inkscape:current-layer="Layer_1" /><rect
     style="fill:#00458b;fill-opacity:1;stroke:none;stroke-width:15.59799957;stroke-miterlimit:4;stroke-dasharray:none;stroke-opacity:1"
     id="rect5459"
     width="496.15204"
     height="250.00002"
     x="0.0029749917"
     y="-250.00002"
     transform="scale(1,-1)" /><path
     style="fill:#ffffff"
     d="m 2850.2968,760.50971 c -3.126,-4.003 -7.276,-6.006 -12.451,-6.006 -4.591,0 -7.716,0.879 -9.375,2.637 -1.662,1.758 -5.226,6.445 -10.693,14.063 -5.47,7.617 -11.744,14.502 -18.823,20.654 -7.082,6.152 -16.53,12.012 -28.345,17.578 -7.91,3.712 -13.429,6.738 -16.553,9.082 -3.126,2.344 -4.688,6.006 -4.688,10.986 0,4.298 1.586,8.082 4.761,11.353 3.172,3.273 6.812,4.907 10.913,4.907 8.592,0 25.292,-9.521 50.098,-28.564 l 0,133.301 c 0,7.814 1.806,13.722 5.42,17.725 3.612,4.003 8.397,6.006 14.355,6.006 13.378,0 20.068,-9.814 20.068,-29.443 l 0,-167.726 c 0,-7.031 -1.562,-12.547 -4.687,-16.553 z"
     id="path4259"
     inkscape:connector-curvature="0" /><g
     id="g4261"
     transform="translate(0,-246.15799)" /><g
     id="g4263"
     transform="translate(0,-246.15799)" /><g
     id="g4265"
     transform="translate(0,-246.15799)" /><g
     id="g4267"
     transform="translate(0,-246.15799)" /><g
     id="g4269"
     transform="translate(0,-246.15799)" /><g
     id="g4271"
     transform="translate(0,-246.15799)" /><g
     id="g4273"
     transform="translate(0,-246.15799)" /><g
     id="g4275"
     transform="translate(0,-246.15799)" /><g
     id="g4277"
     transform="translate(0,-246.15799)" /><g
     id="g4279"
     transform="translate(0,-246.15799)" /><g
     id="g4281"
     transform="translate(0,-246.15799)" /><g
     id="g4283"
     transform="translate(0,-246.15799)" /><g
     id="g4285"
     transform="translate(0,-246.15799)" /><g
     id="g4287"
     transform="translate(0,-246.15799)" /><g
     id="g4289"
     transform="translate(0,-246.15799)" /><path
     style="fill:#ffffff"
     d="m 271.66209,151.6563 c -1.3661,-1.06556 -3.3475,-1.59903 -5.9459,-1.59903 l -26.0816,0 c 0.8323,-1.26545 1.6489,-2.34842 2.4484,-3.24753 1.8651,-2.26485 5.304,-5.44621 10.3177,-9.5434 5.0126,-4.09719 8.5852,-7.10289 10.7174,-9.01846 2.1315,-1.91489 4.222,-4.56312 6.2706,-7.94436 2.0486,-3.38056 3.0729,-7.13632 3.0729,-11.26694 0,-2.63084 -0.4918,-5.17128 -1.4738,-7.61964 -0.9831,-2.448358 -2.357,-4.604738 -4.1221,-6.470508 -1.7659,-1.86508 -3.8145,-3.33041 -6.1458,-4.39701 -3.5975,-1.59903 -7.9444,-2.39821 -13.0406,-2.39821 -4.2306,0 -7.9195,0.62454 -11.0671,1.87362 -3.1476,1.24907 -5.746,2.89006 -7.7946,4.9216 -2.0486,2.03223 -3.5896,4.29707 -4.6218,6.795228 -1.0328,2.49815 -1.5489,4.89637 -1.5489,7.19498 0,1.89852 0.5495,3.39762 1.6489,4.49695 1.0993,1.09934 2.4811,1.64884 4.1469,1.64884 1.8986,0 3.339,-0.59964 4.322,-1.79858 0.982,-1.19927 1.8651,-2.91428 2.6482,-5.14638 0.7822,-2.23142 1.3405,-3.5975 1.6738,-4.09719 2.4981,-3.83012 5.9285,-5.746028 10.2928,-5.746028 2.0649,0 3.9723,0.46695 5.7207,1.39915 1.7488,0.932888 3.1306,2.240628 4.147,3.922218 1.0158,1.6826 1.524,3.58964 1.524,5.72078 0,1.96571 -0.4748,3.97235 -1.424,6.02061 -0.9493,2.04825 -2.3321,4.04705 -4.147,5.9957 -1.816,1.94866 -4.0894,3.88947 -6.8201,5.82073 -1.5326,1.03283 -4.0809,3.18989 -7.6446,6.47051 -3.5647,3.2813 -7.5616,7.21988 -11.9914,11.81677 -1.0662,1.13276 -2.0486,2.69019 -2.948,4.67159 -0.8995,1.98242 -1.3491,3.57259 -1.3491,4.77153 0,1.86577 0.6996,3.4897 2.0984,4.87146 1.3992,1.38279 3.3475,2.0735 5.846,2.0735 l 36.7741,0 c 2.1983,0 3.8386,-0.56587 4.9216,-1.69864 1.0819,-1.13208 1.6239,-2.51452 1.6239,-4.14699 -3e-4,-1.83132 -0.6835,-3.28027 -2.0489,-4.34687 z"
     id="path4300"
     inkscape:connector-curvature="0" /></svg>